<?xml version="1.0" encoding="utf-8"?>
<!-- Svg Vector Icons : http://www.sfont.cn -->
<!DOCTYPE svg PUBLIC "-//W3C//DTD SVG 1.1//EN" "http://www.w3.org/Graphics/SVG/1.1/DTD/svg11.dtd">
<svg version="1.1" xmlns="http://www.w3.org/2000/svg" xmlns:xlink="http://www.w3.org/1999/xlink" x="0px" y="0px" viewBox="0 0 1000 1000" enable-background="new 0 0 1000 1000" xml:space="preserve">
<metadata> Svg Vector Icons : http://www.sfont.cn </metadata>
<g><path d="M990,713.1l-0.4-29.6l-29.4-2.6c-31.5-2.9-89.4-14.7-110.9-34.5c-33.2-30.6-72.9-73.9-72.9-105.9c0-2.1,0-5.2,8.5-10.6c10.2-6.5,25.7-11.4,39.4-15.7c10.7-3.4,20.7-6.6,29.4-10.7c18.9-9,37.8-32.6,35.7-58.8c-2.5-31-29.4-55.2-61.4-55.2c-8.2,0-16.5,1.6-24.6,4.6c-16.4,6.2-28.1,9-36.1,10.1c1.5-19,3.7-41.1,6.6-62.6c10.4-77.5-10.8-150.1-59.7-206.3c-51.8-59.5-129.6-92.6-213.5-92.6H500c-83.9,0-161.7,33.1-213.5,92.6c-49,56.2-70.2,129.3-59.7,206.8c2.9,21.5,5,43.3,6.6,62.5c-8.1-1.1-19.8-4.1-36.1-10.3c-8.1-3.1-16.4-4.7-24.6-4.7c-31.9,0-58.9,24.2-61.4,55.1c-2.1,26.2,16.8,49.8,35.7,58.8c8.7,4.1,18.7,7.3,29.4,10.7c13.7,4.3,29.2,9.3,39.4,15.7c8.5,5.4,8.5,8.5,8.5,10.6c0,17.7-12.6,50.4-72.9,105.9c-21.4,19.8-79.7,31.6-111.5,34.5L10,683.6l0,30c0,3.4,0.6,21.5,13.2,41.5c10.7,17,32.8,39.4,77.3,49.8c12.6,3,22.8,5.2,31,7.1c4.7,1,9.3,2.1,13.2,3c0.1,0.4,0.1,0.9,0.2,1.3c1.8,14.3,3.3,25.6,9,36.2c5,9.4,17.5,25.1,44.9,25.1c5.1,0,10.7-0.5,17.3-1.5c3.4-0.5,6.9-1.1,10.6-1.8c14.5-2.5,31-5.3,47.9-5.3c21,0,38.2,4.5,52.8,13.7c9.3,5.9,18.2,12.2,27.6,18.9c36.7,26.2,78.4,55.8,145,55.8c66.8,0,108.8-29.8,145.9-56c9.3-6.6,18.2-12.9,27.3-18.7c14.5-9.2,31.8-13.7,52.8-13.7c16.9,0,33.3,2.8,47.9,5.3c3.7,0.6,7.2,1.2,10.6,1.8c6.6,1,12.2,1.5,17.3,1.5c27.4,0,39.9-15.8,44.9-25.1c5.7-10.6,7.1-21.9,9-36.2c0.1-0.4,0.1-0.9,0.2-1.3c3.9-0.9,8.5-1.9,13.2-3c8.2-1.8,18.4-4.1,31-7.1c44.6-10.5,66.6-33,77.2-50.1C989.6,734.8,990,716.6,990,713.1z M402,238.7c18,0,32.7,21.9,32.7,49s-14.6,49-32.7,49s-32.7-21.9-32.7-49S384,238.7,402,238.7z M613.5,397.3c-31.1,30.7-71.5,47.6-113.5,47.6c-42.5,0-82.9-16.9-113.6-47.7c-6.4-6.4-6.4-16.7,0-23.1c6.4-6.4,16.7-6.4,23.1,0c24.6,24.6,56.7,38.1,90.5,38.1c33.5,0,65.6-13.6,90.6-38.2c6.4-6.3,16.8-6.3,23.1,0.2C620,380.6,620,391,613.5,397.3z M598,336.7c-18,0-32.7-21.9-32.7-49s14.6-49,32.7-49c18,0,32.7,21.9,32.7,49S616,336.7,598,336.7z"/></g>
</svg>